<svg width="352" height="97" viewBox="0 0 352 97" fill="none" xmlns="http://www.w3.org/2000/svg">
  <path fill-rule="evenodd" clip-rule="evenodd" d="M32.4075 42.0549L55.3724 15H319.592L296.628 42.0549H32.4075ZM48.4295 0H332.325H352L339.268 15L303.57 57.0549H296.527C296.527 57.0916 296.527 57.1282 296.527 57.1648C296.527 78.795 278.993 96.3297 257.363 96.3297H87.1649C65.5347 96.3297 48 78.795 48 57.1648C48 57.1282 48.0001 57.0916 48.0002 57.0549H19.6752H0L12.7323 42.0549L48.4295 0ZM63.0002 57.0549C63.0001 57.0916 63 57.1282 63 57.1648C63 70.5107 73.819 81.3297 87.1649 81.3297H257.363C270.708 81.3297 281.527 70.5107 281.527 57.1648C281.527 57.1282 281.527 57.0916 281.527 57.0549H63.0002Z" fill="black" />
</svg>
